HIERARCHY
ROOT Root
{
  OFFSET 0.0 0.0 0.0
  CHANNELS 6 Xposition Yposition Zposition Zrotation Yrotation Xrotation
  JOINT Hips
  {
    OFFSET 0.0 100.0 0.0
    CHANNELS 6 Xposition Yposition Zposition Zrotation Yrotation Xrotation
    JOINT Spine1
    {
      OFFSET -0.013727 5.003763 -0.053727
      CHANNELS 3 Zrotation Yrotation Xrotation
      JOINT Spine2
      {
        OFFSET -0.0 7.125301 -0.029825
        CHANNELS 3 Zrotation Yrotation Xrotation
        JOINT Chest
        {
          OFFSET -1e-06 7.550063 -0.815971
          CHANNELS 3 Zrotation Yrotation Xrotation
          JOINT Neck1
          {
            OFFSET -0.181677 26.311295 -0.553348
            CHANNELS 3 Zrotation Yrotation Xrotation
            JOINT Neck2
            {
              OFFSET -3e-06 7.709397 2.302585
              CHANNELS 3 Zrotation Yrotation Xrotation
              JOINT Head
              {
                OFFSET -5e-06 6.128916 1.953709
                CHANNELS 3 Zrotation Yrotation Xrotation
                JOINT HeadEnd
                {
                  OFFSET 0.003598 16.065403 -1.835379
                  CHANNELS 3 Zrotation Yrotation Xrotation
                }
                JOINT Jaw
                {
                  OFFSET 0.002637 0.475592 3.094941
                  CHANNELS 3 Zrotation Yrotation Xrotation
                }
                JOINT LeftEye
                {
                  OFFSET 3.206381 5.380205 7.586883
                  CHANNELS 3 Zrotation Yrotation Xrotation
                }
                JOINT RightEye
                {
                  OFFSET -3.22244 5.361869 7.558234
                  CHANNELS 3 Zrotation Yrotation Xrotation
                }
              }
            }
          }
          JOINT LeftShoulder
          {
            OFFSET 1.621652 23.237164 5.113413
            CHANNELS 3 Zrotation Yrotation Xrotation
            JOINT LeftArm
            {
              OFFSET 14.919846 2e-06 -5.502326
              CHANNELS 3 Zrotation Yrotation Xrotation
              JOINT LeftForeArm
              {
                OFFSET 28.739307 0.0 -0.002588
                CHANNELS 3 Zrotation Yrotation Xrotation
                JOINT LeftHand
                {
                  OFFSET 27.093981 -1e-06 0.002609
                  CHANNELS 3 Zrotation Yrotation Xrotation
                  JOINT LeftHandThumb1
                  {
                    OFFSET 2.276482 -1.392045 3.191413
                    CHANNELS 3 Zrotation Yrotation Xrotation
                    JOINT LeftHandThumb2
                    {
                      OFFSET 4.012836 -1.828127 1.641654
                      CHANNELS 3 Zrotation Yrotation Xrotation
                      JOINT LeftHandThumb3
                      {
                        OFFSET 2.798515 0.0 -3e-06
                        CHANNELS 3 Zrotation Yrotation Xrotation
                        JOINT LeftHandThumbEnd
                        {
                          OFFSET 3.180793 -4e-06 4e-06
                          CHANNELS 3 Zrotation Yrotation Xrotation
                        }
                      }
                    }
                  }
                  JOINT LeftHandIndex1
                  {
                    OFFSET 3.247555 -0.531998 2.296169
                    CHANNELS 3 Zrotation Yrotation Xrotation
                    JOINT LeftHandIndex2
                    {
                      OFFSET 6.364578 0.01206 0.1786
                      CHANNELS 3 Zrotation Yrotation Xrotation
                      JOINT LeftHandIndex3
                      {
                        OFFSET 3.662364 0.0 0.0
                        CHANNELS 3 Zrotation Yrotation Xrotation
                        JOINT LeftHandIndex4
                        {
                          OFFSET 2.329242 4e-06 4e-06
                          CHANNELS 3 Zrotation Yrotation Xrotation
                          JOINT LeftHandIndexEnd
                          {
                            OFFSET 2.759615 -0.180537 -0.113024
                            CHANNELS 3 Zrotation Yrotation Xrotation
                          }
                        }
                      }
                    }
                  }
                  JOINT LeftHandMiddle1
                  {
                    OFFSET 3.163495 0.240981 1.000332
                    CHANNELS 3 Zrotation Yrotation Xrotation
                    JOINT LeftHandMiddle2
                    {
                      OFFSET 6.19078 -0.259278 -1.002548
                      CHANNELS 3 Zrotation Yrotation Xrotation
                      JOINT LeftHandMiddle3
                      {
                        OFFSET 4.35652 -4e-06 -1e-06
                        CHANNELS 3 Zrotation Yrotation Xrotation
                        JOINT LeftHandMiddle4
                        {
                          OFFSET 2.996877 -8e-06 0.0
                          CHANNELS 3 Zrotation Yrotation Xrotation
                          JOINT LeftHandMiddleEnd
                          {
                            OFFSET 2.304287 -0.294569 -0.031741
                            CHANNELS 3 Zrotation Yrotation Xrotation
                          }
                        }
                      }
                    }
                  }
                  JOINT LeftHandRing1
                  {
                    OFFSET 2.882643 -0.053652 -0.322543
                    CHANNELS 3 Zrotation Yrotation Xrotation
                    JOINT LeftHandRing2
                    {
                      OFFSET 5.854541 -0.486202 -1.373841
                      CHANNELS 3 Zrotation Yrotation Xrotation
                      JOINT LeftHandRing3
                      {
                        OFFSET 4.350578 0.0 3e-06
                        CHANNELS 3 Zrotation Yrotation Xrotation
                        JOINT LeftHandRing4
                        {
                          OFFSET 2.651321 7e-06 2e-06
                          CHANNELS 3 Zrotation Yrotation Xrotation
                          JOINT LeftHandRingEnd
                          {
                            OFFSET 1.936105 0.077687 -7.1e-05
                            CHANNELS 3 Zrotation Yrotation Xrotation
                          }
                        }
                      }
                    }
                  }
                  JOINT LeftHandPinky1
                  {
                    OFFSET 2.8655 -0.310005 -1.600378
                    CHANNELS 3 Zrotation Yrotation Xrotation
                    JOINT LeftHandPinky2
                    {
                      OFFSET 5.087849 -1.331141 -1.77123
                      CHANNELS 3 Zrotation Yrotation Xrotation
                      JOINT LeftHandPinky3
                      {
                        OFFSET 3.070974 4e-06 0.0
                        CHANNELS 3 Zrotation Yrotation Xrotation
                        JOINT LeftHandPinky4
                        {
                          OFFSET 1.549672 0.0 1e-06
                          CHANNELS 3 Zrotation Yrotation Xrotation
                          JOINT LeftHandPinkyEnd
                          {
                            OFFSET 1.944893 -0.157802 0.057219
                            CHANNELS 3 Zrotation Yrotation Xrotation
                          }
                        }
                      }
                    }
                  }
                }
              }
            }
          }
          JOINT RightShoulder
          {
            OFFSET -1.380118 23.180309 5.214158
            CHANNELS 3 Zrotation Yrotation Xrotation
            JOINT RightArm
            {
              OFFSET -15.037196 1.2e-05 -5.545604
              CHANNELS 3 Zrotation Yrotation Xrotation
              JOINT RightForeArm
              {
                OFFSET -28.736639 2e-06 -0.002597
                CHANNELS 3 Zrotation Yrotation Xrotation
                JOINT RightHand
                {
                  OFFSET -27.133619 -0.0 0.002613
                  CHANNELS 3 Zrotation Yrotation Xrotation
                  JOINT RightHandThumb1
                  {
                    OFFSET -2.274032 -1.383988 3.163127
                    CHANNELS 3 Zrotation Yrotation Xrotation
                    JOINT RightHandThumb2
                    {
                      OFFSET -4.011429 -1.827466 1.640914
                      CHANNELS 3 Zrotation Yrotation Xrotation
                      JOINT RightHandThumb3
                      {
                        OFFSET -2.794935 -4e-06 -3e-06
                        CHANNELS 3 Zrotation Yrotation Xrotation
                        JOINT RightHandThumbEnd
                        {
                          OFFSET -3.183852 4e-06 1e-06
                          CHANNELS 3 Zrotation Yrotation Xrotation
                        }
                      }
                    }
                  }
                  JOINT RightHandIndex1
                  {
                    OFFSET -3.253266 -0.520057 2.282866
                    CHANNELS 3 Zrotation Yrotation Xrotation
                    JOINT RightHandIndex2
                    {
                      OFFSET -6.341917 0.012471 0.178266
                      CHANNELS 3 Zrotation Yrotation Xrotation
                      JOINT RightHandIndex3
                      {
                        OFFSET -3.654871 -8e-06 -0.0
                        CHANNELS 3 Zrotation Yrotation Xrotation
                        JOINT RightHandIndex4
                        {
                          OFFSET -2.327586 0.0 1e-06
                          CHANNELS 3 Zrotation Yrotation Xrotation
                          JOINT RightHandIndexEnd
                          {
                            OFFSET -2.76179 -0.180656 -0.113078
                            CHANNELS 3 Zrotation Yrotation Xrotation
                          }
                        }
                      }
                    }
                  }
                  JOINT RightHandMiddle1
                  {
                    OFFSET -3.168106 0.246593 1.00103
                    CHANNELS 3 Zrotation Yrotation Xrotation
                    JOINT RightHandMiddle2
                    {
                      OFFSET -6.180828 -0.258836 -1.000895
                      CHANNELS 3 Zrotation Yrotation Xrotation
                      JOINT RightHandMiddle3
                      {
                        OFFSET -4.348901 0.0 -0.0
                        CHANNELS 3 Zrotation Yrotation Xrotation
                        JOINT RightHandMiddle4
                        {
                          OFFSET -3.00024 -4e-06 -2e-06
                          CHANNELS 3 Zrotation Yrotation Xrotation
                          JOINT RightHandMiddleEnd
                          {
                            OFFSET -2.30252 -0.29437 -0.031706
                            CHANNELS 3 Zrotation Yrotation Xrotation
                          }
                        }
                      }
                    }
                  }
                  JOINT RightHandRing1
                  {
                    OFFSET -2.88569 -0.067952 -0.308858
                    CHANNELS 3 Zrotation Yrotation Xrotation
                    JOINT RightHandRing2
                    {
                      OFFSET -5.854198 -0.48613 -1.373731
                      CHANNELS 3 Zrotation Yrotation Xrotation
                      JOINT RightHandRing3
                      {
                        OFFSET -4.33881 -4e-06 -0.0
                        CHANNELS 3 Zrotation Yrotation Xrotation
                        JOINT RightHandRing4
                        {
                          OFFSET -2.654903 -4e-06 4e-06
                          CHANNELS 3 Zrotation Yrotation Xrotation
                          JOINT RightHandRingEnd
                          {
                            OFFSET -1.933568 0.077527 -5.2e-05
                            CHANNELS 3 Zrotation Yrotation Xrotation
                          }
                        }
                      }
                    }
                  }
                  JOINT RightHandPinky1
                  {
                    OFFSET -2.866425 -0.342796 -1.584145
                    CHANNELS 3 Zrotation Yrotation Xrotation
                    JOINT RightHandPinky2
                    {
                      OFFSET -5.091371 -1.332055 -1.772385
                      CHANNELS 3 Zrotation Yrotation Xrotation
                      JOINT RightHandPinky3
                      {
                        OFFSET -3.062664 -4e-06 1e-06
                        CHANNELS 3 Zrotation Yrotation Xrotation
                        JOINT RightHandPinky4
                        {
                          OFFSET -1.546529 4e-06 -2e-06
                          CHANNELS 3 Zrotation Yrotation Xrotation
                          JOINT RightHandPinkyEnd
                          {
                            OFFSET -1.945119 -0.157718 0.057211
                            CHANNELS 3 Zrotation Yrotation Xrotation
                          }
                        }
                      }
                    }
                  }
                }
              }
            }
          }
        }
      }
    }
    JOINT LeftLeg
    {
      OFFSET 10.043214 -8.434526 2.595655
      CHANNELS 3 Zrotation Yrotation Xrotation
      JOINT LeftShin
      {
        OFFSET -1e-06 -43.221752 -0.802913
        CHANNELS 3 Zrotation Yrotation Xrotation
        JOINT LeftFoot
        {
          OFFSET 1e-06 -42.155094 -3.481523
          CHANNELS 3 Zrotation Yrotation Xrotation
          JOINT LeftToeBase
          {
            OFFSET 0.0 -5.059472 13.231529
            CHANNELS 3 Zrotation Yrotation Xrotation
            JOINT LeftToeEnd
            {
              OFFSET -0.009607 -1.647619 6.513017
              CHANNELS 3 Zrotation Yrotation Xrotation
            }
          }
        }
      }
    }
    JOINT RightLeg
    {
      OFFSET -10.047278 -8.29526 2.620317
      CHANNELS 3 Zrotation Yrotation Xrotation
      JOINT RightShin
      {
        OFFSET 1e-06 -43.362206 -0.805556
        CHANNELS 3 Zrotation Yrotation Xrotation
        JOINT RightFoot
        {
          OFFSET 2e-06 -42.117393 -3.478398
          CHANNELS 3 Zrotation Yrotation Xrotation
          JOINT RightToeBase
          {
            OFFSET -0.0 -5.079609 13.284196
            CHANNELS 3 Zrotation Yrotation Xrotation
            JOINT RightToeEnd
            {
              OFFSET 0.009532 -1.634378 6.460591
              CHANNELS 3 Zrotation Yrotation Xrotation
            }
          }
        }
      }
    }
  }
}
MOTION
Frames: 4
Frame Time: 0.03333333333333333
0.0 0.0 0.0 0.0 -0.0 0.0 -1.445492 99.257141 5.461899 -0.968247 0.257993 -10.087121 -2.183404 -0.049192 -1.640849 -0.998016 -1.619302 -5.706814 0.474441 -3.821258 17.245028 2.006986 2.589532 14.087361 -0.250461 -0.252932 -4.082125 -0.908445 -0.426744 -15.205928 7.7e-05 -2.3e-05 6e-06 0.003756 0.093482 0.07472 0.561699 -3.633799 -10.419656 -0.560928 3.832464 -10.430533 -0.584784 -8.399582 11.435211 -75.266769 -12.502159 7.661211 0.582843 -21.813362 -0.386115 4.253701 -1.010342 3.51198 -5.882102 9.861281 0.702591 -10.936868 -0.360578 7.156203 2e-06 8.774822 -2e-06 -15.648242 18.270195 6.301225 -1.844031 2.498504 -2.507277 -10.163596 4.678941 4.621108 -20.976017 -6e-06 5e-06 -21.226274 2.451694 -3.593995 1e-06 -6e-06 -0.0 -1.36268 2.240796 -0.746323 -21.334906 0.584904 3.008325 -13.821208 -6e-06 2e-06 -23.887161 -0.24908 -0.839476 -59.935097 2.722044 -0.820622 -0.294024 1.679687 0.833258 -14.218204 0.093212 1.30058 -34.21204 -0.28757 0.967176 -20.033205 0.964534 1.212847 -0.0 1e-06 2e-06 -3.440388 0.788233 0.501654 -15.928183 -3.167313 2.999705 -6.338825 -3e-06 1e-06 -18.12344 3.648177 -4.905668 -3e-06 -0.0 -3e-06 11.766942 8.215034 11.328261 57.818592 10.86084 -10.041944 177.997253 52.569069 178.61055 16.861801 -5.980266 -63.360386 2.243543 -5.255034 -3.180159 14.282887 -0.826596 6.952503 -3e-06 -12.690603 3e-06 16.244715 -17.597965 3.172537 1.665666 -1.95592 -2.878298 4.727798 -4.170589 4.993925 11.020523 5e-06 -1e-06 12.109047 -3.735716 -2.866782 0.0 0.0 0.0 1.291983 -1.928549 -1.498088 14.800127 0.567468 3.86561 14.242566 -1.341736 -6.660654 19.631964 0.143928 -0.648241 51.251129 -0.702833 -5.700944 0.353028 -1.511151 -0.031938 20.222794 3.68431 2.316633 18.78727 3e-06 3e-06 10.751627 -0.479869 1.397908 0.0 -1e-06 0.0 3.273809 0.305947 -0.580112 21.486809 11.830378 2.266131 8.162926 0.0 1e-06 18.39908 -3.798988 -4.940572 3e-06 -1e-06 -0.0 3.441382 0.877932 15.15837 0.02972 -0.066689 1.489607 -2.740303 13.995388 -5.301624 1.678959 -2.056414 1.884532 0.0 0.0 2e-06 -2.731435 -5.028091 14.47043 -0.016151 -0.018601 2.687548 3.448079 -11.736327 -7.106261 -1.449422 0.9228 1.630113 0.0 0.0 -1e-06 
0.0 0.0 0.0 0.0 -0.0 0.0 -1.483837 99.300858 5.471588 -0.982271 0.107348 -10.024853 -2.209573 -0.093031 -1.621046 -0.967565 -1.563077 -5.702928 0.506283 -3.804927 17.196352 2.089361 2.542819 13.799779 -0.309794 -0.216998 -4.07194 -0.918121 -0.348262 -15.453262 7.7e-05 -2.3e-05 6e-06 0.007992 0.080428 0.079491 0.562448 -3.644549 -10.408528 -0.553589 3.816688 -10.428622 -0.670732 -8.343467 11.491746 -75.256805 -12.261269 7.76403 0.384914 -21.687056 -0.34228 4.104482 -1.055236 3.759617 -5.882107 9.861284 0.702589 -10.936874 -0.360575 7.156203 2e-06 8.774826 0.0 -15.738682 18.283905 6.322467 -1.844033 2.498503 -2.507278 -10.163602 4.678944 4.621108 -20.97603 -8e-06 -2e-06 -21.226292 2.451693 -3.593999 2e-06 -6e-06 1e-06 -1.362683 2.240798 -0.746324 -21.334917 0.584908 3.00832 -13.821218 -4e-06 -0.0 -23.887178 -0.249083 -0.839482 -60.086178 2.751215 -0.731066 -0.294025 1.679687 0.833256 -14.21821 0.093213 1.300581 -34.212055 -0.28757 0.967169 -20.033216 0.964533 1.212843 0.0 2e-06 2e-06 -3.440389 0.788233 0.501655 -15.928189 -3.16731 2.999705 -6.338827 -3e-06 -1e-06 -18.123447 3.648179 -4.905672 -3e-06 1e-06 -3e-06 11.741225 8.227438 11.262471 57.902985 10.856627 -9.960397 177.951859 52.362186 178.690613 16.704432 -5.888354 -64.061302 2.243539 -5.255037 -3.180155 14.282887 -0.826596 6.952503 -2e-06 -12.690603 2e-06 16.257868 -17.568953 3.167373 1.665666 -1.955921 -2.878299 4.727799 -4.170587 4.993925 11.020523 5e-06 -2e-06 12.10905 -3.735715 -2.866783 -1e-06 0.0 1e-06 1.291984 -1.928548 -1.498089 14.800123 0.567467 3.865608 14.242569 -1.341735 -6.660656 19.631962 0.143927 -0.648246 51.176888 -0.71929 -5.634275 0.353029 -1.51115 -0.03194 20.222782 3.684307 2.316631 18.787268 3e-06 -1e-06 10.751625 -0.479872 1.397906 -0.0 -1e-06 0.0 3.273807 0.305948 -0.580112 21.486805 11.830372 2.266132 8.162924 -2e-06 1e-06 18.399076 -3.798985 -4.940573 3e-06 1e-06 -1e-06 3.435389 0.914234 15.110512 0.019303 -0.086741 1.513065 -2.648569 14.201581 -5.326166 1.675326 -2.055854 1.81041 0.0 -0.0 2e-06 -2.715989 -4.949048 14.358723 -0.016537 -0.055648 2.753959 3.414436 -11.57194 -7.096554 -1.445643 0.909545 1.570533 0.0 0.0 -1e-06 
0.0 0.0 0.0 0.0 -0.0 0.0 -1.483699 99.340637 5.438629 -0.994281 -0.08758 -9.95808 -2.223395 -0.11292 -1.584641 -0.961387 -1.565302 -5.703149 0.510505 -3.797146 17.179052 2.221372 2.508111 13.468484 -0.368701 -0.116128 -4.065052 -0.884792 -0.248891 -15.860461 7.7e-05 -2.2e-05 6e-06 0.009435 0.065624 0.08423 0.560509 -3.658866 -10.399572 -0.548963 3.801609 -10.425713 -0.700745 -8.345848 11.524332 -75.225777 -11.955734 8.352401 0.194789 -21.457531 -0.287328 3.756079 -0.983349 3.740545 -5.8821 9.861276 0.702589 -10.936863 -0.360575 7.156201 1e-06 8.774817 -1e-06 -15.806159 18.267218 6.320518 -1.844029 2.498504 -2.507276 -10.163592 4.67894 4.621105 -20.976004 -3e-06 6e-06 -21.226269 2.451697 -3.593993 1e-06 -6e-06 -0.0 -1.362679 2.240795 -0.746324 -21.334896 0.584908 3.008323 -13.821201 -2e-06 4e-06 -23.887146 -0.249077 -0.839477 -60.170143 2.750285 -0.661263 -0.294023 1.679687 0.833255 -14.218197 0.093213 1.300583 -34.212021 -0.287562 0.967176 -20.033195 0.964538 1.212846 -0.0 0.0 2e-06 -3.440385 0.788231 0.501656 -15.928172 -3.167308 2.999706 -6.338821 -1e-06 1e-06 -18.123428 3.648177 -4.905661 -3e-06 1e-06 -3e-06 11.742744 8.239093 11.193913 57.943623 10.844285 -9.936821 177.895172 52.229855 178.702759 16.651762 -5.801178 -64.873405 2.243537 -5.255029 -3.180153 14.282873 -0.82659 6.952492 -3e-06 -12.690583 -1e-06 16.209915 -17.554688 3.184193 1.665664 -1.955917 -2.878295 4.727793 -4.170578 4.993915 11.020513 5e-06 -2e-06 12.109035 -3.735707 -2.86678 -2e-06 1e-06 1e-06 1.291984 -1.928546 -1.498088 14.800107 0.567469 3.865602 14.242552 -1.341733 -6.660646 19.631937 0.143927 -0.648243 51.035801 -0.750272 -5.56646 0.353029 -1.511149 -0.031939 20.222769 3.684308 2.316627 18.787251 6e-06 -0.0 10.751615 -0.479867 1.397905 0.0 -1e-06 -0.0 3.273804 0.305946 -0.58011 21.486788 11.830358 2.266132 8.162915 1e-06 1e-06 18.399054 -3.798975 -4.940566 3e-06 0.0 -0.0 3.42435 0.965525 15.043712 0.019325 -0.086251 1.542312 -2.627681 14.397723 -5.352005 1.674496 -2.061716 1.806513 0.0 -0.0 2e-06 -2.692218 -4.831942 14.186522 -0.017527 -0.088246 2.865066 3.315511 -11.423052 -6.996077 -1.440037 0.892801 1.52823 -0.0 -0.0 -1e-06 
0.0 0.0 0.0 0.0 -0.0 0.0 -1.495492 99.355469 5.427341 -1.012809 -0.32606 -9.884977 -2.223179 -0.126426 -1.537727 -0.965249 -1.596576 -5.689062 0.491412 -3.82233 17.153858 2.363791 2.469266 13.073182 -0.392234 0.055992 -4.05608 -0.853221 -0.088632 -16.307875 7.7e-05 -2.2e-05 6e-06 0.010381 0.055082 0.083628 0.561084 -3.670321 -10.400582 -0.547782 3.792276 -10.430088 -0.692842 -8.378273 11.563078 -75.181816 -11.608562 9.377634 0.021777 -21.106133 -0.224056 3.149515 -0.857563 3.584129 -5.8821 9.861276 0.70259 -10.936861 -0.360576 7.156198 1e-06 8.774817 -2e-06 -15.849586 18.235128 6.302712 -1.844031 2.498502 -2.507276 -10.16359 4.67894 4.621106 -20.976006 -5e-06 3e-06 -21.226269 2.451694 -3.593995 1e-06 -6e-06 -1e-06 -1.36268 2.240796 -0.746322 -21.334892 0.584908 3.008322 -13.821199 -2e-06 1e-06 -23.887146 -0.249077 -0.839478 -60.175663 2.728142 -0.624805 -0.294024 1.679685 0.833254 -14.218195 0.093213 1.30058 -34.212013 -0.287565 0.96717 -20.033194 0.964537 1.212844 -1e-06 0.0 -0.0 -3.440387 0.788233 0.501657 -15.928172 -3.167308 2.999705 -6.338821 -2e-06 2e-06 -18.123426 3.648181 -4.905663 -3e-06 1e-06 -4e-06 11.71134 8.242314 11.112154 57.927845 10.815437 -9.941781 177.843292 52.190468 178.665924 16.692528 -5.784208 -65.423599 2.243539 -5.255032 -3.180156 14.282878 -0.826595 6.952498 -6e-06 -12.690596 3e-06 16.146553 -17.539738 3.202641 1.665663 -1.955919 -2.878297 4.727796 -4.170584 4.993921 11.020515 5e-06 -2e-06 12.10904 -3.735712 -2.866782 -1e-06 1e-06 0.0 1.291986 -1.928546 -1.498088 14.800117 0.567467 3.865603 14.242558 -1.341733 -6.660653 19.63195 0.143928 -0.648245 50.878361 -0.774243 -5.509765 0.353028 -1.511149 -0.031941 20.222775 3.68431 2.316629 18.787262 4e-06 0.0 10.75162 -0.479866 1.397906 -0.0 1e-06 -0.0 3.273802 0.305948 -0.580111 21.486799 11.830366 2.266129 8.16292 2e-06 1e-06 18.399065 -3.798982 -4.940569 3e-06 0.0 -1e-06 3.444769 1.07118 14.965884 0.026098 -0.075008 1.582597 -2.670292 14.560838 -5.383359 1.673131 -2.068651 1.841638 0.0 -1e-06 2e-06 -2.650053 -4.668625 13.97972 -0.01604 -0.109761 3.001374 3.272768 -11.296088 -6.928793 -1.435411 0.89362 1.529632 0.0 0.0 -1e-06 
